<svg width="176" height="54" viewBox="0 0 176 54" fill="none" xmlns="http://www.w3.org/2000/svg">
<g clip-path="url(#clip0_9436_17078)">
<path d="M22.3821 45.8584C22.7858 43.8709 22.7393 41.8304 22.2514 39.9079C22.8061 39.6776 25.0713 38.8537 27.7402 39.6628C28.0683 39.7603 28.4168 39.5713 28.5127 39.2376C28.6114 38.9009 28.4226 38.5495 28.0945 38.4491C25.1759 37.5661 22.7219 38.3575 21.8826 38.6971C21.2089 36.8101 20.0821 35.0767 18.5139 33.6799C17.0734 32.3953 15.4152 31.5271 13.6698 31.0634C13.8789 30.0062 14.1519 27.564 12.9874 24.9151C12.848 24.5962 12.4792 24.4544 12.1655 24.5962C11.8519 24.7409 11.7125 25.113 11.8519 25.4319C12.8712 27.7442 12.6215 29.9147 12.4472 30.8036C10.3795 30.4817 8.23627 30.6973 6.22082 31.4355C5.36992 31.7486 4.54226 32.1531 3.75525 32.6522V26.7076L3.68555 0C3.70878 0 3.73201 0 3.75525 0C20.9852 0 35.163 12.0574 35.163 26.7076C35.163 35.7854 29.7179 43.868 21.476 48.7022C21.8826 47.7779 22.1875 46.827 22.3821 45.8613V45.8584Z" fill="#021C35"/>
<path d="M14.7942 53.1252C20.1087 50.772 22.5072 44.4047 20.1515 38.9034C17.7958 33.4021 11.5778 30.85 6.26335 33.2031C0.948865 35.5563 -1.44968 41.9236 0.906057 47.4249C3.26179 52.9262 9.47973 55.4783 14.7942 53.1252Z" fill="#C43028"/>
</g>
<path d="M49.3121 37.5V16.5H58.1621C64.9121 16.5 69.5021 20.76 69.5021 27C69.5021 33.24 64.9121 37.5 58.1621 37.5H49.3121ZM52.3121 34.89H57.9821C63.1721 34.89 66.5021 31.71 66.5021 27C66.5021 22.29 63.1721 19.11 57.9821 19.11H52.3121V34.89ZM80.8073 37.68C76.0373 37.68 72.5273 34.29 72.5273 29.55C72.5273 24.81 76.0373 21.45 80.8073 21.45C85.5773 21.45 89.0573 24.81 89.0573 29.55C89.0573 34.29 85.5773 37.68 80.8073 37.68ZM80.8073 35.16C83.8673 35.16 86.1473 32.94 86.1473 29.55C86.1473 26.16 83.8673 23.97 80.8073 23.97C77.7473 23.97 75.4373 26.16 75.4373 29.55C75.4373 32.94 77.7473 35.16 80.8073 35.16ZM101.4 34.5L102.3 36.57C101.43 37.32 100.11 37.68 98.8202 37.68C95.6102 37.68 93.7802 35.91 93.7802 32.7V23.97H91.0802V21.6H93.7802V18.12H96.6602V21.6H101.22V23.97H96.6602V32.58C96.6602 34.29 97.5602 35.25 99.1502 35.25C99.9902 35.25 100.8 34.98 101.4 34.5ZM125.992 21.45C129.862 21.45 132.502 23.67 132.502 28.35V37.5H129.622V28.68C129.622 25.56 128.122 24.03 125.512 24.03C122.632 24.03 120.742 25.86 120.742 29.31V37.5H117.862V28.68C117.862 25.56 116.362 24.03 113.752 24.03C110.872 24.03 108.982 25.86 108.982 29.31V37.5H106.102V21.6H108.862V23.97C110.002 22.35 111.952 21.45 114.352 21.45C116.782 21.45 118.822 22.41 119.872 24.39C121.072 22.59 123.292 21.45 125.992 21.45ZM139.561 18.54C138.451 18.54 137.611 17.73 137.611 16.68C137.611 15.63 138.451 14.79 139.561 14.79C140.671 14.79 141.511 15.6 141.511 16.62C141.511 17.7 140.701 18.54 139.561 18.54ZM138.121 37.5V21.6H141.001V37.5H138.121ZM154.86 34.5L155.76 36.57C154.89 37.32 153.57 37.68 152.28 37.68C149.07 37.68 147.24 35.91 147.24 32.7V23.97H144.54V21.6H147.24V18.12H150.12V21.6H154.68V23.97H150.12V32.58C150.12 34.29 151.02 35.25 152.61 35.25C153.45 35.25 154.26 34.98 154.86 34.5ZM173.405 29.64C173.405 29.88 173.375 30.24 173.345 30.51H160.445C160.805 33.3 163.055 35.16 166.205 35.16C168.065 35.16 169.625 34.53 170.795 33.24L172.385 35.1C170.945 36.78 168.755 37.68 166.115 37.68C160.985 37.68 157.565 34.29 157.565 29.55C157.565 24.84 160.955 21.45 165.545 21.45C170.135 21.45 173.405 24.75 173.405 29.64ZM165.545 23.88C162.785 23.88 160.745 25.74 160.445 28.44H170.645C170.345 25.77 168.335 23.88 165.545 23.88Z" fill="black"/>
<defs>
<clipPath id="clip0_9436_17078">
<rect width="35.1628" height="54" fill="white"/>
</clipPath>
</defs>
</svg>
